<mxfile host="Electron" agent="Mozilla/5.0 (Windows NT 10.0; Win64; x64) AppleWebKit/537.36 (KHTML, like Gecko) draw.io/24.7.17 Chrome/128.0.6613.36 Electron/32.0.1 Safari/537.36" version="24.7.17">
  <diagram name="To-be" id="mpqDrv1PympAwwhYca5q">
    <mxGraphModel dx="1434" dy="957" grid="0" gridSize="10" guides="1" tooltips="1" connect="1" arrows="1" fold="1" page="0" pageScale="1" pageWidth="850" pageHeight="1100" background="#0a0b0a" math="0" shadow="0">
      <root>
        <mxCell id="DP1tajTbKg8MEuZh2tVG-0" />
        <mxCell id="DP1tajTbKg8MEuZh2tVG-1" parent="DP1tajTbKg8MEuZh2tVG-0" />
        <mxCell id="p_2lori3M2sPVxMAgTC9-0" value="ERP process flow" style="swimlane;childLayout=stackLayout;resizeParent=1;resizeParentMax=0;horizontal=0;startSize=20;horizontalStack=0;html=1;" parent="DP1tajTbKg8MEuZh2tVG-1" vertex="1">
          <mxGeometry x="-358" y="193" width="1508" height="496" as="geometry">
            <mxRectangle x="240" y="200" width="40" height="50" as="alternateBounds" />
          </mxGeometry>
        </mxCell>
        <mxCell id="p_2lori3M2sPVxMAgTC9-1" style="edgeStyle=orthogonalEdgeStyle;rounded=0;orthogonalLoop=1;jettySize=auto;html=1;" parent="p_2lori3M2sPVxMAgTC9-0" source="p_2lori3M2sPVxMAgTC9-36" target="p_2lori3M2sPVxMAgTC9-18" edge="1">
          <mxGeometry relative="1" as="geometry" />
        </mxCell>
        <mxCell id="p_2lori3M2sPVxMAgTC9-2" style="edgeStyle=orthogonalEdgeStyle;rounded=0;orthogonalLoop=1;jettySize=auto;html=1;entryX=0.5;entryY=0;entryDx=0;entryDy=0;entryPerimeter=0;" parent="p_2lori3M2sPVxMAgTC9-0" source="p_2lori3M2sPVxMAgTC9-18" target="p_2lori3M2sPVxMAgTC9-38" edge="1">
          <mxGeometry relative="1" as="geometry" />
        </mxCell>
        <mxCell id="p_2lori3M2sPVxMAgTC9-3" style="edgeStyle=orthogonalEdgeStyle;rounded=0;orthogonalLoop=1;jettySize=auto;html=1;entryX=0.5;entryY=0;entryDx=0;entryDy=0;entryPerimeter=0;" parent="p_2lori3M2sPVxMAgTC9-0" source="p_2lori3M2sPVxMAgTC9-40" target="p_2lori3M2sPVxMAgTC9-56" edge="1">
          <mxGeometry relative="1" as="geometry">
            <mxPoint x="615" y="340" as="targetPoint" />
          </mxGeometry>
        </mxCell>
        <mxCell id="p_2lori3M2sPVxMAgTC9-4" style="edgeStyle=orthogonalEdgeStyle;rounded=0;orthogonalLoop=1;jettySize=auto;html=1;entryX=0;entryY=0.5;entryDx=0;entryDy=0;entryPerimeter=0;" parent="p_2lori3M2sPVxMAgTC9-0" source="p_2lori3M2sPVxMAgTC9-57" target="p_2lori3M2sPVxMAgTC9-42" edge="1">
          <mxGeometry relative="1" as="geometry" />
        </mxCell>
        <mxCell id="p_2lori3M2sPVxMAgTC9-5" style="edgeStyle=orthogonalEdgeStyle;rounded=0;orthogonalLoop=1;jettySize=auto;html=1;entryX=0.5;entryY=1;entryDx=0;entryDy=0;entryPerimeter=0;" parent="p_2lori3M2sPVxMAgTC9-0" source="p_2lori3M2sPVxMAgTC9-47" target="p_2lori3M2sPVxMAgTC9-19" edge="1">
          <mxGeometry relative="1" as="geometry" />
        </mxCell>
        <mxCell id="p_2lori3M2sPVxMAgTC9-7" style="edgeStyle=orthogonalEdgeStyle;rounded=0;orthogonalLoop=1;jettySize=auto;html=1;entryX=0.5;entryY=0;entryDx=0;entryDy=0;entryPerimeter=0;" parent="p_2lori3M2sPVxMAgTC9-0" source="p_2lori3M2sPVxMAgTC9-50" target="p_2lori3M2sPVxMAgTC9-61" edge="1">
          <mxGeometry relative="1" as="geometry" />
        </mxCell>
        <mxCell id="p_2lori3M2sPVxMAgTC9-8" style="edgeStyle=orthogonalEdgeStyle;rounded=0;orthogonalLoop=1;jettySize=auto;html=1;entryX=0.5;entryY=1;entryDx=0;entryDy=0;entryPerimeter=0;" parent="p_2lori3M2sPVxMAgTC9-0" source="p_2lori3M2sPVxMAgTC9-59" target="p_2lori3M2sPVxMAgTC9-42" edge="1">
          <mxGeometry relative="1" as="geometry" />
        </mxCell>
        <mxCell id="p_2lori3M2sPVxMAgTC9-9" value="Procurement professional" style="swimlane;startSize=20;horizontal=0;html=1;" parent="p_2lori3M2sPVxMAgTC9-0" vertex="1">
          <mxGeometry x="20" width="1488" height="190" as="geometry" />
        </mxCell>
        <mxCell id="p_2lori3M2sPVxMAgTC9-10" value="" style="points=[[0.145,0.145,0],[0.5,0,0],[0.855,0.145,0],[1,0.5,0],[0.855,0.855,0],[0.5,1,0],[0.145,0.855,0],[0,0.5,0]];shape=mxgraph.bpmn.event;html=1;verticalLabelPosition=bottom;labelBackgroundColor=#ffffff;verticalAlign=top;align=center;perimeter=ellipsePerimeter;outlineConnect=0;aspect=fixed;outline=standard;symbol=general;" parent="p_2lori3M2sPVxMAgTC9-9" vertex="1">
          <mxGeometry x="30" y="15" width="40" height="40" as="geometry" />
        </mxCell>
        <mxCell id="p_2lori3M2sPVxMAgTC9-11" style="edgeStyle=orthogonalEdgeStyle;rounded=0;orthogonalLoop=1;jettySize=auto;html=1;" parent="p_2lori3M2sPVxMAgTC9-9" source="p_2lori3M2sPVxMAgTC9-12" edge="1">
          <mxGeometry relative="1" as="geometry">
            <mxPoint x="220" y="35" as="targetPoint" />
          </mxGeometry>
        </mxCell>
        <mxCell id="p_2lori3M2sPVxMAgTC9-12" value="&lt;div&gt;&lt;font style=&quot;font-size: 10px;&quot;&gt;&lt;br&gt;&lt;/font&gt;&lt;/div&gt;&lt;font style=&quot;font-size: 10px;&quot;&gt;Create contract workspace&lt;/font&gt;" style="points=[[0.25,0,0],[0.5,0,0],[0.75,0,0],[1,0.25,0],[1,0.5,0],[1,0.75,0],[0.75,1,0],[0.5,1,0],[0.25,1,0],[0,0.75,0],[0,0.5,0],[0,0.25,0]];shape=mxgraph.bpmn.task;whiteSpace=wrap;rectStyle=rounded;size=10;html=1;container=1;expand=0;collapsible=0;taskMarker=user;direction=east;" parent="p_2lori3M2sPVxMAgTC9-9" vertex="1">
          <mxGeometry x="100" y="10" width="90" height="50" as="geometry" />
        </mxCell>
        <mxCell id="p_2lori3M2sPVxMAgTC9-13" style="edgeStyle=orthogonalEdgeStyle;rounded=0;orthogonalLoop=1;jettySize=auto;html=1;" parent="p_2lori3M2sPVxMAgTC9-9" source="p_2lori3M2sPVxMAgTC9-14" edge="1">
          <mxGeometry relative="1" as="geometry">
            <mxPoint x="353" y="35" as="targetPoint" />
          </mxGeometry>
        </mxCell>
        <mxCell id="p_2lori3M2sPVxMAgTC9-14" value="&lt;div&gt;&lt;font style=&quot;font-size: 10px;&quot;&gt;Validate&amp;nbsp;&lt;/font&gt;&lt;/div&gt;&lt;div&gt;&lt;font style=&quot;font-size: 10px;&quot;&gt;supplier&lt;/font&gt;&lt;/div&gt;" style="points=[[0.25,0,0],[0.5,0,0],[0.75,0,0],[1,0.25,0],[1,0.5,0],[1,0.75,0],[0.75,1,0],[0.5,1,0],[0.25,1,0],[0,0.75,0],[0,0.5,0],[0,0.25,0]];shape=mxgraph.bpmn.task;whiteSpace=wrap;rectStyle=rounded;size=10;html=1;container=1;expand=0;collapsible=0;taskMarker=user;" parent="p_2lori3M2sPVxMAgTC9-9" vertex="1">
          <mxGeometry x="220" y="10" width="96" height="50" as="geometry" />
        </mxCell>
        <mxCell id="p_2lori3M2sPVxMAgTC9-15" style="edgeStyle=orthogonalEdgeStyle;rounded=0;orthogonalLoop=1;jettySize=auto;html=1;" parent="p_2lori3M2sPVxMAgTC9-9" edge="1">
          <mxGeometry relative="1" as="geometry">
            <mxPoint x="100" y="34.5" as="targetPoint" />
            <mxPoint x="70" y="34.5" as="sourcePoint" />
          </mxGeometry>
        </mxCell>
        <mxCell id="p_2lori3M2sPVxMAgTC9-16" style="edgeStyle=orthogonalEdgeStyle;rounded=0;orthogonalLoop=1;jettySize=auto;html=1;" parent="p_2lori3M2sPVxMAgTC9-9" source="p_2lori3M2sPVxMAgTC9-17" edge="1">
          <mxGeometry relative="1" as="geometry">
            <mxPoint x="355" y="220" as="targetPoint" />
          </mxGeometry>
        </mxCell>
        <mxCell id="p_2lori3M2sPVxMAgTC9-17" value="&lt;div&gt;&lt;span style=&quot;font-size: 10px;&quot;&gt;&lt;br&gt;&lt;/span&gt;&lt;/div&gt;&lt;div&gt;&lt;span style=&quot;font-size: 10px;&quot;&gt;Create supplier registration ticket&lt;/span&gt;&lt;/div&gt;" style="points=[[0.25,0,0],[0.5,0,0],[0.75,0,0],[1,0.25,0],[1,0.5,0],[1,0.75,0],[0.75,1,0],[0.5,1,0],[0.25,1,0],[0,0.75,0],[0,0.5,0],[0,0.25,0]];shape=mxgraph.bpmn.task;whiteSpace=wrap;rectStyle=rounded;size=10;html=1;container=1;expand=0;collapsible=0;taskMarker=user;" parent="p_2lori3M2sPVxMAgTC9-9" vertex="1">
          <mxGeometry x="310" y="120" width="90" height="50" as="geometry" />
        </mxCell>
        <mxCell id="p_2lori3M2sPVxMAgTC9-18" value="&lt;div&gt;&lt;font style=&quot;font-size: 10px;&quot;&gt;&lt;br&gt;&lt;/font&gt;&lt;/div&gt;&lt;div&gt;&lt;font style=&quot;font-size: 10px;&quot;&gt;Provide available details&lt;/font&gt;&lt;/div&gt;" style="points=[[0.25,0,0],[0.5,0,0],[0.75,0,0],[1,0.25,0],[1,0.5,0],[1,0.75,0],[0.75,1,0],[0.5,1,0],[0.25,1,0],[0,0.75,0],[0,0.5,0],[0,0.25,0]];shape=mxgraph.bpmn.task;whiteSpace=wrap;rectStyle=rounded;size=10;html=1;container=1;expand=0;collapsible=0;taskMarker=user;" parent="p_2lori3M2sPVxMAgTC9-9" vertex="1">
          <mxGeometry x="430" y="110" width="90" height="50" as="geometry" />
        </mxCell>
        <mxCell id="p_2lori3M2sPVxMAgTC9-19" value="&lt;div&gt;&lt;font style=&quot;font-size: 10px;&quot;&gt;Receive&lt;/font&gt;&lt;/div&gt;&lt;div&gt;&lt;font style=&quot;font-size: 10px;&quot;&gt;&amp;nbsp;notification&lt;/font&gt;&lt;/div&gt;" style="points=[[0.25,0,0],[0.5,0,0],[0.75,0,0],[1,0.25,0],[1,0.5,0],[1,0.75,0],[0.75,1,0],[0.5,1,0],[0.25,1,0],[0,0.75,0],[0,0.5,0],[0,0.25,0]];shape=mxgraph.bpmn.task;whiteSpace=wrap;rectStyle=rounded;size=10;html=1;container=1;expand=0;collapsible=0;taskMarker=service;" parent="p_2lori3M2sPVxMAgTC9-9" vertex="1">
          <mxGeometry x="968" y="105" width="90" height="50" as="geometry" />
        </mxCell>
        <mxCell id="p_2lori3M2sPVxMAgTC9-20" value="&lt;div&gt;&lt;font style=&quot;font-size: 10px;&quot;&gt;&lt;br&gt;&lt;/font&gt;&lt;/div&gt;&lt;div&gt;&lt;font style=&quot;font-size: 10px;&quot;&gt;Input mandatory contract details&lt;/font&gt;&lt;/div&gt;" style="points=[[0.25,0,0],[0.5,0,0],[0.75,0,0],[1,0.25,0],[1,0.5,0],[1,0.75,0],[0.75,1,0],[0.5,1,0],[0.25,1,0],[0,0.75,0],[0,0.5,0],[0,0.25,0]];shape=mxgraph.bpmn.task;whiteSpace=wrap;rectStyle=rounded;size=10;html=1;container=1;expand=0;collapsible=0;taskMarker=user;" parent="p_2lori3M2sPVxMAgTC9-9" vertex="1">
          <mxGeometry x="528" y="12" width="90" height="50" as="geometry" />
        </mxCell>
        <mxCell id="p_2lori3M2sPVxMAgTC9-21" value="&lt;div&gt;&lt;font style=&quot;font-size: 10px;&quot;&gt;Receive&lt;/font&gt;&lt;/div&gt;&lt;div&gt;&lt;font style=&quot;font-size: 10px;&quot;&gt;&amp;nbsp;notification&lt;/font&gt;&lt;/div&gt;" style="points=[[0.25,0,0],[0.5,0,0],[0.75,0,0],[1,0.25,0],[1,0.5,0],[1,0.75,0],[0.75,1,0],[0.5,1,0],[0.25,1,0],[0,0.75,0],[0,0.5,0],[0,0.25,0]];shape=mxgraph.bpmn.task;whiteSpace=wrap;rectStyle=rounded;size=10;html=1;container=1;expand=0;collapsible=0;taskMarker=service;" parent="p_2lori3M2sPVxMAgTC9-9" vertex="1">
          <mxGeometry x="1190" y="100" width="90" height="50" as="geometry" />
        </mxCell>
        <mxCell id="p_2lori3M2sPVxMAgTC9-22" value="" style="points=[[0.145,0.145,0],[0.5,0,0],[0.855,0.145,0],[1,0.5,0],[0.855,0.855,0],[0.5,1,0],[0.145,0.855,0],[0,0.5,0]];shape=mxgraph.bpmn.event;html=1;verticalLabelPosition=bottom;labelBackgroundColor=#ffffff;verticalAlign=top;align=center;perimeter=ellipsePerimeter;outlineConnect=0;aspect=fixed;outline=end;symbol=terminate2;" parent="p_2lori3M2sPVxMAgTC9-9" vertex="1">
          <mxGeometry x="1373" y="107.25" width="35.5" height="35.5" as="geometry" />
        </mxCell>
        <mxCell id="p_2lori3M2sPVxMAgTC9-23" style="edgeStyle=orthogonalEdgeStyle;rounded=0;orthogonalLoop=1;jettySize=auto;html=1;exitX=1;exitY=0.5;exitDx=0;exitDy=0;exitPerimeter=0;entryX=0;entryY=0.5;entryDx=0;entryDy=0;entryPerimeter=0;" parent="p_2lori3M2sPVxMAgTC9-9" source="p_2lori3M2sPVxMAgTC9-21" target="p_2lori3M2sPVxMAgTC9-22" edge="1">
          <mxGeometry relative="1" as="geometry" />
        </mxCell>
        <mxCell id="p_2lori3M2sPVxMAgTC9-24" value="&lt;span style=&quot;font-size: 10px;&quot;&gt;Start&lt;/span&gt;" style="text;html=1;align=center;verticalAlign=middle;whiteSpace=wrap;rounded=0;" parent="p_2lori3M2sPVxMAgTC9-9" vertex="1">
          <mxGeometry x="20" y="57" width="60" height="30" as="geometry" />
        </mxCell>
        <mxCell id="p_2lori3M2sPVxMAgTC9-25" value="&lt;span style=&quot;font-size: 10px;&quot;&gt;End&lt;/span&gt;" style="text;html=1;align=center;verticalAlign=middle;whiteSpace=wrap;rounded=0;" parent="p_2lori3M2sPVxMAgTC9-9" vertex="1">
          <mxGeometry x="1370.25" y="150" width="41" height="20" as="geometry" />
        </mxCell>
        <mxCell id="p_2lori3M2sPVxMAgTC9-26" style="edgeStyle=orthogonalEdgeStyle;rounded=0;orthogonalLoop=1;jettySize=auto;html=1;entryX=0;entryY=0.5;entryDx=0;entryDy=0;entryPerimeter=0;" parent="p_2lori3M2sPVxMAgTC9-9" source="p_2lori3M2sPVxMAgTC9-27" target="p_2lori3M2sPVxMAgTC9-20" edge="1">
          <mxGeometry relative="1" as="geometry">
            <mxPoint x="500" y="35" as="targetPoint" />
          </mxGeometry>
        </mxCell>
        <mxCell id="p_2lori3M2sPVxMAgTC9-27" value="&lt;font style=&quot;font-size: 10px;&quot;&gt;Existing&lt;/font&gt;&lt;div&gt;&lt;font style=&quot;font-size: 10px;&quot;&gt;supplier?&lt;/font&gt;&lt;/div&gt;" style="strokeWidth=2;html=1;shape=mxgraph.flowchart.decision;whiteSpace=wrap;" parent="p_2lori3M2sPVxMAgTC9-9" vertex="1">
          <mxGeometry x="356" y="5.5" width="68" height="61.5" as="geometry" />
        </mxCell>
        <mxCell id="p_2lori3M2sPVxMAgTC9-28" style="edgeStyle=orthogonalEdgeStyle;rounded=0;orthogonalLoop=1;jettySize=auto;html=1;entryX=0.5;entryY=0;entryDx=0;entryDy=0;entryPerimeter=0;" parent="p_2lori3M2sPVxMAgTC9-9" source="p_2lori3M2sPVxMAgTC9-27" target="p_2lori3M2sPVxMAgTC9-17" edge="1">
          <mxGeometry relative="1" as="geometry" />
        </mxCell>
        <mxCell id="p_2lori3M2sPVxMAgTC9-29" value="&lt;span style=&quot;font-size: 10px;&quot;&gt;Yes&lt;/span&gt;" style="text;html=1;align=center;verticalAlign=middle;whiteSpace=wrap;rounded=0;" parent="p_2lori3M2sPVxMAgTC9-9" vertex="1">
          <mxGeometry x="430" y="10" width="41" height="24" as="geometry" />
        </mxCell>
        <mxCell id="p_2lori3M2sPVxMAgTC9-30" value="&lt;span style=&quot;font-size: 10px;&quot;&gt;No&lt;/span&gt;" style="text;html=1;align=center;verticalAlign=middle;whiteSpace=wrap;rounded=0;" parent="p_2lori3M2sPVxMAgTC9-9" vertex="1">
          <mxGeometry x="359" y="66.75" width="26" height="20.25" as="geometry" />
        </mxCell>
        <mxCell id="p_2lori3M2sPVxMAgTC9-31" style="edgeStyle=orthogonalEdgeStyle;rounded=0;orthogonalLoop=1;jettySize=auto;html=1;entryX=0.5;entryY=1;entryDx=0;entryDy=0;entryPerimeter=0;" parent="p_2lori3M2sPVxMAgTC9-9" source="p_2lori3M2sPVxMAgTC9-19" target="p_2lori3M2sPVxMAgTC9-20" edge="1">
          <mxGeometry relative="1" as="geometry" />
        </mxCell>
        <mxCell id="rEKTI0RP75uoOM8sU9Dj-0" value="&lt;div&gt;&lt;span style=&quot;font-size: 10px;&quot;&gt;&lt;br&gt;&lt;/span&gt;&lt;/div&gt;&lt;div&gt;&lt;span style=&quot;font-size: 10px;&quot;&gt;Select and add Line manager name&lt;/span&gt;&lt;/div&gt;" style="points=[[0.25,0,0],[0.5,0,0],[0.75,0,0],[1,0.25,0],[1,0.5,0],[1,0.75,0],[0.75,1,0],[0.5,1,0],[0.25,1,0],[0,0.75,0],[0,0.5,0],[0,0.25,0]];shape=mxgraph.bpmn.task;whiteSpace=wrap;rectStyle=rounded;size=10;html=1;container=1;expand=0;collapsible=0;taskMarker=service;" parent="p_2lori3M2sPVxMAgTC9-9" vertex="1">
          <mxGeometry x="675.5" y="10" width="101" height="54" as="geometry" />
        </mxCell>
        <mxCell id="oXGijNosoyle01SsH8sr-0" style="edgeStyle=orthogonalEdgeStyle;rounded=0;orthogonalLoop=1;jettySize=auto;html=1;entryX=0;entryY=0.5;entryDx=0;entryDy=0;entryPerimeter=0;" parent="p_2lori3M2sPVxMAgTC9-9" source="p_2lori3M2sPVxMAgTC9-20" target="rEKTI0RP75uoOM8sU9Dj-0" edge="1">
          <mxGeometry relative="1" as="geometry" />
        </mxCell>
        <mxCell id="0TexcutDrAjfoCsRnpNa-0" value="&lt;div&gt;&lt;font style=&quot;font-size: 10px;&quot;&gt;&lt;br&gt;&lt;/font&gt;&lt;/div&gt;&lt;div&gt;&lt;font style=&quot;font-size: 10px;&quot;&gt;Provide requested data&lt;/font&gt;&lt;/div&gt;" style="points=[[0.25,0,0],[0.5,0,0],[0.75,0,0],[1,0.25,0],[1,0.5,0],[1,0.75,0],[0.75,1,0],[0.5,1,0],[0.25,1,0],[0,0.75,0],[0,0.5,0],[0,0.25,0]];shape=mxgraph.bpmn.task;whiteSpace=wrap;rectStyle=rounded;size=10;html=1;container=1;expand=0;collapsible=0;taskMarker=user;" parent="p_2lori3M2sPVxMAgTC9-9" vertex="1">
          <mxGeometry x="942" y="25" width="90" height="52" as="geometry" />
        </mxCell>
        <mxCell id="RAK3HERPRjVZuNe-H92L-0" value="&lt;div&gt;&lt;font style=&quot;font-size: 10px;&quot;&gt;&lt;br&gt;&lt;/font&gt;&lt;/div&gt;&lt;div&gt;&lt;font style=&quot;font-size: 10px;&quot;&gt;Share approval, contract details&lt;/font&gt;&lt;/div&gt;" style="points=[[0.25,0,0],[0.5,0,0],[0.75,0,0],[1,0.25,0],[1,0.5,0],[1,0.75,0],[0.75,1,0],[0.5,1,0],[0.25,1,0],[0,0.75,0],[0,0.5,0],[0,0.25,0]];shape=mxgraph.bpmn.task;whiteSpace=wrap;rectStyle=rounded;size=10;html=1;container=1;expand=0;collapsible=0;taskMarker=user;" parent="p_2lori3M2sPVxMAgTC9-9" vertex="1">
          <mxGeometry x="1085" y="21" width="100" height="60" as="geometry" />
        </mxCell>
        <mxCell id="p_2lori3M2sPVxMAgTC9-32" value="&lt;div&gt;&lt;br&gt;&lt;/div&gt;ERP support&amp;nbsp;&lt;div&gt;&lt;br&gt;&lt;/div&gt;" style="swimlane;startSize=20;horizontal=0;html=1;" parent="p_2lori3M2sPVxMAgTC9-0" vertex="1">
          <mxGeometry x="20" y="190" width="1488" height="160" as="geometry" />
        </mxCell>
        <mxCell id="p_2lori3M2sPVxMAgTC9-33" style="edgeStyle=orthogonalEdgeStyle;rounded=0;orthogonalLoop=1;jettySize=auto;html=1;" parent="p_2lori3M2sPVxMAgTC9-32" source="p_2lori3M2sPVxMAgTC9-34" edge="1">
          <mxGeometry relative="1" as="geometry">
            <mxPoint x="430" y="55" as="targetPoint" />
          </mxGeometry>
        </mxCell>
        <mxCell id="p_2lori3M2sPVxMAgTC9-34" value="&lt;div&gt;&lt;font style=&quot;font-size: 10px;&quot;&gt;Accept ticket&lt;/font&gt;&lt;/div&gt;" style="points=[[0.25,0,0],[0.5,0,0],[0.75,0,0],[1,0.25,0],[1,0.5,0],[1,0.75,0],[0.75,1,0],[0.5,1,0],[0.25,1,0],[0,0.75,0],[0,0.5,0],[0,0.25,0]];shape=mxgraph.bpmn.task;whiteSpace=wrap;rectStyle=rounded;size=10;html=1;container=1;expand=0;collapsible=0;taskMarker=user;" parent="p_2lori3M2sPVxMAgTC9-32" vertex="1">
          <mxGeometry x="310" y="30" width="90" height="50" as="geometry" />
        </mxCell>
        <mxCell id="p_2lori3M2sPVxMAgTC9-35" value="&lt;div&gt;&lt;font style=&quot;font-size: 10px;&quot;&gt;&lt;br&gt;&lt;/font&gt;&lt;/div&gt;&lt;div&gt;&lt;font style=&quot;font-size: 10px;&quot;&gt;Request supplier POC details&lt;/font&gt;&lt;/div&gt;" style="points=[[0.25,0,0],[0.5,0,0],[0.75,0,0],[1,0.25,0],[1,0.5,0],[1,0.75,0],[0.75,1,0],[0.5,1,0],[0.25,1,0],[0,0.75,0],[0,0.5,0],[0,0.25,0]];shape=mxgraph.bpmn.task;whiteSpace=wrap;rectStyle=rounded;size=10;html=1;container=1;expand=0;collapsible=0;taskMarker=user;" parent="p_2lori3M2sPVxMAgTC9-32" vertex="1">
          <mxGeometry x="430" y="30" width="90" height="50" as="geometry" />
        </mxCell>
        <mxCell id="p_2lori3M2sPVxMAgTC9-36" value="" style="points=[[0.145,0.145,0],[0.5,0,0],[0.855,0.145,0],[1,0.5,0],[0.855,0.855,0],[0.5,1,0],[0.145,0.855,0],[0,0.5,0]];shape=mxgraph.bpmn.event;html=1;verticalLabelPosition=bottom;labelBackgroundColor=#ffffff;verticalAlign=top;align=center;perimeter=ellipsePerimeter;outlineConnect=0;aspect=fixed;outline=standard;symbol=message;" parent="p_2lori3M2sPVxMAgTC9-32" vertex="1">
          <mxGeometry x="465" y="-10" width="20" height="20" as="geometry" />
        </mxCell>
        <mxCell id="p_2lori3M2sPVxMAgTC9-37" value="" style="edgeStyle=elbowEdgeStyle;fontSize=12;html=1;endArrow=blockThin;endFill=1;rounded=0;exitX=0.5;exitY=0;exitDx=0;exitDy=0;exitPerimeter=0;entryX=0.5;entryY=1;entryDx=0;entryDy=0;entryPerimeter=0;" parent="p_2lori3M2sPVxMAgTC9-32" source="p_2lori3M2sPVxMAgTC9-35" target="p_2lori3M2sPVxMAgTC9-36" edge="1">
          <mxGeometry width="160" relative="1" as="geometry">
            <mxPoint x="290" y="10" as="sourcePoint" />
            <mxPoint x="450" y="10" as="targetPoint" />
          </mxGeometry>
        </mxCell>
        <mxCell id="p_2lori3M2sPVxMAgTC9-38" value="" style="points=[[0.145,0.145,0],[0.5,0,0],[0.855,0.145,0],[1,0.5,0],[0.855,0.855,0],[0.5,1,0],[0.145,0.855,0],[0,0.5,0]];shape=mxgraph.bpmn.event;html=1;verticalLabelPosition=bottom;labelBackgroundColor=#ffffff;verticalAlign=top;align=center;perimeter=ellipsePerimeter;outlineConnect=0;aspect=fixed;outline=end;symbol=message;" parent="p_2lori3M2sPVxMAgTC9-32" vertex="1">
          <mxGeometry x="530" y="-10" width="20" height="20" as="geometry" />
        </mxCell>
        <mxCell id="p_2lori3M2sPVxMAgTC9-39" style="edgeStyle=orthogonalEdgeStyle;rounded=0;orthogonalLoop=1;jettySize=auto;html=1;entryX=1;entryY=0.25;entryDx=0;entryDy=0;entryPerimeter=0;" parent="p_2lori3M2sPVxMAgTC9-32" source="p_2lori3M2sPVxMAgTC9-38" target="p_2lori3M2sPVxMAgTC9-35" edge="1">
          <mxGeometry relative="1" as="geometry">
            <Array as="points">
              <mxPoint x="540" y="43" />
            </Array>
          </mxGeometry>
        </mxCell>
        <mxCell id="p_2lori3M2sPVxMAgTC9-40" value="&lt;div&gt;&lt;font style=&quot;font-size: 6px;&quot;&gt;&lt;br&gt;&lt;/font&gt;&lt;/div&gt;&lt;div&gt;&lt;font style=&quot;font-size: 8px;&quot;&gt;Share onboarding questionnaire to supplier&lt;/font&gt;&lt;/div&gt;" style="points=[[0.25,0,0],[0.5,0,0],[0.75,0,0],[1,0.25,0],[1,0.5,0],[1,0.75,0],[0.75,1,0],[0.5,1,0],[0.25,1,0],[0,0.75,0],[0,0.5,0],[0,0.25,0]];shape=mxgraph.bpmn.task;whiteSpace=wrap;rectStyle=rounded;size=10;html=1;container=1;expand=0;collapsible=0;taskMarker=user;" parent="p_2lori3M2sPVxMAgTC9-32" vertex="1">
          <mxGeometry x="522" y="90" width="90" height="50" as="geometry" />
        </mxCell>
        <mxCell id="p_2lori3M2sPVxMAgTC9-41" style="edgeStyle=orthogonalEdgeStyle;rounded=0;orthogonalLoop=1;jettySize=auto;html=1;" parent="p_2lori3M2sPVxMAgTC9-32" source="p_2lori3M2sPVxMAgTC9-42" edge="1">
          <mxGeometry relative="1" as="geometry">
            <mxPoint x="860" y="110" as="targetPoint" />
          </mxGeometry>
        </mxCell>
        <mxCell id="p_2lori3M2sPVxMAgTC9-42" value="&lt;div&gt;&lt;font style=&quot;font-size: 10px;&quot;&gt;&lt;br&gt;&lt;/font&gt;&lt;/div&gt;&lt;font style=&quot;font-size: 10px;&quot;&gt;Perform necessary checks for missing data&lt;/font&gt;" style="points=[[0.25,0,0],[0.5,0,0],[0.75,0,0],[1,0.25,0],[1,0.5,0],[1,0.75,0],[0.75,1,0],[0.5,1,0],[0.25,1,0],[0,0.75,0],[0,0.5,0],[0,0.25,0]];shape=mxgraph.bpmn.task;whiteSpace=wrap;rectStyle=rounded;size=10;html=1;container=1;expand=0;collapsible=0;taskMarker=user;" parent="p_2lori3M2sPVxMAgTC9-32" vertex="1">
          <mxGeometry x="740" y="80" width="90" height="60" as="geometry" />
        </mxCell>
        <mxCell id="p_2lori3M2sPVxMAgTC9-44" style="edgeStyle=orthogonalEdgeStyle;rounded=0;orthogonalLoop=1;jettySize=auto;html=1;entryX=0;entryY=0.5;entryDx=0;entryDy=0;entryPerimeter=0;" parent="p_2lori3M2sPVxMAgTC9-32" target="p_2lori3M2sPVxMAgTC9-46" edge="1">
          <mxGeometry relative="1" as="geometry">
            <mxPoint x="950" y="110" as="targetPoint" />
            <mxPoint x="920" y="110" as="sourcePoint" />
          </mxGeometry>
        </mxCell>
        <mxCell id="p_2lori3M2sPVxMAgTC9-46" value="&lt;div&gt;&lt;br&gt;&lt;/div&gt;&lt;font style=&quot;font-size: 10px;&quot;&gt;Supplier is registered&lt;/font&gt;" style="points=[[0.25,0,0],[0.5,0,0],[0.75,0,0],[1,0.25,0],[1,0.5,0],[1,0.75,0],[0.75,1,0],[0.5,1,0],[0.25,1,0],[0,0.75,0],[0,0.5,0],[0,0.25,0]];shape=mxgraph.bpmn.task;whiteSpace=wrap;rectStyle=rounded;size=10;html=1;container=1;expand=0;collapsible=0;taskMarker=service;" parent="p_2lori3M2sPVxMAgTC9-32" vertex="1">
          <mxGeometry x="968" y="85" width="90" height="50" as="geometry" />
        </mxCell>
        <mxCell id="p_2lori3M2sPVxMAgTC9-47" value="" style="points=[[0.145,0.145,0],[0.5,0,0],[0.855,0.145,0],[1,0.5,0],[0.855,0.855,0],[0.5,1,0],[0.145,0.855,0],[0,0.5,0]];shape=mxgraph.bpmn.event;html=1;verticalLabelPosition=bottom;labelBackgroundColor=#ffffff;verticalAlign=top;align=center;perimeter=ellipsePerimeter;outlineConnect=0;aspect=fixed;outline=end;symbol=message;" parent="p_2lori3M2sPVxMAgTC9-32" vertex="1">
          <mxGeometry x="1003" y="28" width="20" height="20" as="geometry" />
        </mxCell>
        <mxCell id="p_2lori3M2sPVxMAgTC9-48" style="edgeStyle=orthogonalEdgeStyle;rounded=0;orthogonalLoop=1;jettySize=auto;html=1;entryX=0.5;entryY=1;entryDx=0;entryDy=0;entryPerimeter=0;" parent="p_2lori3M2sPVxMAgTC9-32" source="p_2lori3M2sPVxMAgTC9-46" target="p_2lori3M2sPVxMAgTC9-47" edge="1">
          <mxGeometry relative="1" as="geometry" />
        </mxCell>
        <mxCell id="p_2lori3M2sPVxMAgTC9-49" value="&lt;div&gt;&lt;font style=&quot;font-size: 10px;&quot;&gt;&lt;br&gt;&lt;/font&gt;&lt;/div&gt;&lt;div&gt;&lt;font style=&quot;font-size: 10px;&quot;&gt;Complete ERP support tasks&lt;/font&gt;&lt;/div&gt;" style="points=[[0.25,0,0],[0.5,0,0],[0.75,0,0],[1,0.25,0],[1,0.5,0],[1,0.75,0],[0.75,1,0],[0.5,1,0],[0.25,1,0],[0,0.75,0],[0,0.5,0],[0,0.25,0]];shape=mxgraph.bpmn.task;whiteSpace=wrap;rectStyle=rounded;size=10;html=1;container=1;expand=0;collapsible=0;taskMarker=user;" parent="p_2lori3M2sPVxMAgTC9-32" vertex="1">
          <mxGeometry x="1090" y="15" width="90" height="50" as="geometry" />
        </mxCell>
        <mxCell id="p_2lori3M2sPVxMAgTC9-50" value="&lt;div&gt;&lt;font style=&quot;font-size: 10px;&quot;&gt;Contract is published&lt;/font&gt;&lt;/div&gt;" style="points=[[0.25,0,0],[0.5,0,0],[0.75,0,0],[1,0.25,0],[1,0.5,0],[1,0.75,0],[0.75,1,0],[0.5,1,0],[0.25,1,0],[0,0.75,0],[0,0.5,0],[0,0.25,0]];shape=mxgraph.bpmn.task;whiteSpace=wrap;rectStyle=rounded;size=10;html=1;container=1;expand=0;collapsible=0;taskMarker=user;" parent="p_2lori3M2sPVxMAgTC9-32" vertex="1">
          <mxGeometry x="1090" y="94" width="90" height="50" as="geometry" />
        </mxCell>
        <mxCell id="p_2lori3M2sPVxMAgTC9-51" style="edgeStyle=orthogonalEdgeStyle;rounded=0;orthogonalLoop=1;jettySize=auto;html=1;exitX=0.5;exitY=1;exitDx=0;exitDy=0;exitPerimeter=0;entryX=0.5;entryY=0;entryDx=0;entryDy=0;entryPerimeter=0;" parent="p_2lori3M2sPVxMAgTC9-32" source="p_2lori3M2sPVxMAgTC9-49" target="p_2lori3M2sPVxMAgTC9-50" edge="1">
          <mxGeometry relative="1" as="geometry" />
        </mxCell>
        <mxCell id="p_2lori3M2sPVxMAgTC9-53" value="&lt;span style=&quot;font-size: 10px;&quot;&gt;Data&amp;nbsp;&lt;/span&gt;&lt;div&gt;&lt;span style=&quot;font-size: 10px;&quot;&gt;missing?&lt;/span&gt;&lt;/div&gt;" style="strokeWidth=2;html=1;shape=mxgraph.flowchart.decision;whiteSpace=wrap;" parent="p_2lori3M2sPVxMAgTC9-32" vertex="1">
          <mxGeometry x="862" y="78.5" width="68" height="61.5" as="geometry" />
        </mxCell>
        <mxCell id="bD9DiAvbuAOdTdwCYoQ0-2" style="edgeStyle=orthogonalEdgeStyle;rounded=0;orthogonalLoop=1;jettySize=auto;html=1;entryX=0;entryY=0.5;entryDx=0;entryDy=0;entryPerimeter=0;" parent="p_2lori3M2sPVxMAgTC9-32" source="p_2lori3M2sPVxMAgTC9-35" target="p_2lori3M2sPVxMAgTC9-40" edge="1">
          <mxGeometry relative="1" as="geometry">
            <Array as="points">
              <mxPoint x="475" y="115" />
            </Array>
          </mxGeometry>
        </mxCell>
        <mxCell id="1kp2pEWLjw-sNzYEPr71-2" value="&lt;span style=&quot;font-size: 10px;&quot;&gt;No&lt;/span&gt;" style="text;html=1;align=center;verticalAlign=middle;whiteSpace=wrap;rounded=0;" parent="p_2lori3M2sPVxMAgTC9-32" vertex="1">
          <mxGeometry x="925" y="85" width="39" height="20" as="geometry" />
        </mxCell>
        <mxCell id="p_2lori3M2sPVxMAgTC9-67" style="edgeStyle=orthogonalEdgeStyle;rounded=0;orthogonalLoop=1;jettySize=auto;html=1;entryX=0.5;entryY=1;entryDx=0;entryDy=0;entryPerimeter=0;" parent="p_2lori3M2sPVxMAgTC9-0" source="p_2lori3M2sPVxMAgTC9-50" target="p_2lori3M2sPVxMAgTC9-21" edge="1">
          <mxGeometry relative="1" as="geometry">
            <Array as="points">
              <mxPoint x="1255" y="313" />
            </Array>
          </mxGeometry>
        </mxCell>
        <mxCell id="bD9DiAvbuAOdTdwCYoQ0-3" style="edgeStyle=orthogonalEdgeStyle;rounded=0;orthogonalLoop=1;jettySize=auto;html=1;" parent="p_2lori3M2sPVxMAgTC9-0" source="p_2lori3M2sPVxMAgTC9-53" edge="1">
          <mxGeometry relative="1" as="geometry">
            <mxPoint x="916" y="372" as="targetPoint" />
          </mxGeometry>
        </mxCell>
        <mxCell id="RAK3HERPRjVZuNe-H92L-2" style="edgeStyle=orthogonalEdgeStyle;rounded=0;orthogonalLoop=1;jettySize=auto;html=1;entryX=0.5;entryY=0;entryDx=0;entryDy=0;entryPerimeter=0;" parent="p_2lori3M2sPVxMAgTC9-0" source="RAK3HERPRjVZuNe-H92L-0" target="p_2lori3M2sPVxMAgTC9-49" edge="1">
          <mxGeometry relative="1" as="geometry" />
        </mxCell>
        <mxCell id="p_2lori3M2sPVxMAgTC9-54" value="Supplier" style="swimlane;startSize=20;horizontal=0;html=1;" parent="p_2lori3M2sPVxMAgTC9-0" vertex="1">
          <mxGeometry x="20" y="350" width="1488" height="146" as="geometry" />
        </mxCell>
        <mxCell id="p_2lori3M2sPVxMAgTC9-55" style="edgeStyle=orthogonalEdgeStyle;rounded=0;orthogonalLoop=1;jettySize=auto;html=1;" parent="p_2lori3M2sPVxMAgTC9-54" source="p_2lori3M2sPVxMAgTC9-56" edge="1">
          <mxGeometry relative="1" as="geometry">
            <mxPoint x="670" y="55" as="targetPoint" />
          </mxGeometry>
        </mxCell>
        <mxCell id="p_2lori3M2sPVxMAgTC9-56" value="&lt;div&gt;&lt;font style=&quot;font-size: 10px;&quot;&gt;Review Questionnaire&lt;/font&gt;&lt;/div&gt;" style="points=[[0.25,0,0],[0.5,0,0],[0.75,0,0],[1,0.25,0],[1,0.5,0],[1,0.75,0],[0.75,1,0],[0.5,1,0],[0.25,1,0],[0,0.75,0],[0,0.5,0],[0,0.25,0]];shape=mxgraph.bpmn.task;whiteSpace=wrap;rectStyle=rounded;size=10;html=1;container=1;expand=0;collapsible=0;taskMarker=user;" parent="p_2lori3M2sPVxMAgTC9-54" vertex="1">
          <mxGeometry x="522" y="30" width="90" height="50" as="geometry" />
        </mxCell>
        <mxCell id="p_2lori3M2sPVxMAgTC9-57" value="&lt;div&gt;&lt;font style=&quot;font-size: 10px;&quot;&gt;&lt;br&gt;&lt;/font&gt;&lt;/div&gt;&lt;div&gt;&lt;font style=&quot;font-size: 10px;&quot;&gt;Send completed questionnaire&lt;/font&gt;&lt;/div&gt;" style="points=[[0.25,0,0],[0.5,0,0],[0.75,0,0],[1,0.25,0],[1,0.5,0],[1,0.75,0],[0.75,1,0],[0.5,1,0],[0.25,1,0],[0,0.75,0],[0,0.5,0],[0,0.25,0]];shape=mxgraph.bpmn.task;whiteSpace=wrap;rectStyle=rounded;size=10;html=1;container=1;expand=0;collapsible=0;taskMarker=user;" parent="p_2lori3M2sPVxMAgTC9-54" vertex="1">
          <mxGeometry x="674" y="30" width="90" height="50" as="geometry" />
        </mxCell>
        <mxCell id="p_2lori3M2sPVxMAgTC9-58" value="&lt;div&gt;&lt;font style=&quot;font-size: 10px;&quot;&gt;&lt;br&gt;&lt;/font&gt;&lt;/div&gt;&lt;div&gt;&lt;font style=&quot;font-size: 10px;&quot;&gt;Provide requested data&lt;/font&gt;&lt;/div&gt;" style="points=[[0.25,0,0],[0.5,0,0],[0.75,0,0],[1,0.25,0],[1,0.5,0],[1,0.75,0],[0.75,1,0],[0.5,1,0],[0.25,1,0],[0,0.75,0],[0,0.5,0],[0,0.25,0]];shape=mxgraph.bpmn.task;whiteSpace=wrap;rectStyle=rounded;size=10;html=1;container=1;expand=0;collapsible=0;taskMarker=user;" parent="p_2lori3M2sPVxMAgTC9-54" vertex="1">
          <mxGeometry x="851" y="82" width="90" height="50" as="geometry" />
        </mxCell>
        <mxCell id="p_2lori3M2sPVxMAgTC9-59" value="" style="points=[[0.145,0.145,0],[0.5,0,0],[0.855,0.145,0],[1,0.5,0],[0.855,0.855,0],[0.5,1,0],[0.145,0.855,0],[0,0.5,0]];shape=mxgraph.bpmn.event;html=1;verticalLabelPosition=bottom;labelBackgroundColor=#ffffff;verticalAlign=top;align=center;perimeter=ellipsePerimeter;outlineConnect=0;aspect=fixed;outline=end;symbol=message;" parent="p_2lori3M2sPVxMAgTC9-54" vertex="1">
          <mxGeometry x="775" y="10" width="20" height="20" as="geometry" />
        </mxCell>
        <mxCell id="p_2lori3M2sPVxMAgTC9-60" style="edgeStyle=orthogonalEdgeStyle;rounded=0;orthogonalLoop=1;jettySize=auto;html=1;entryX=0.5;entryY=1;entryDx=0;entryDy=0;entryPerimeter=0;" parent="p_2lori3M2sPVxMAgTC9-54" source="p_2lori3M2sPVxMAgTC9-58" target="p_2lori3M2sPVxMAgTC9-59" edge="1">
          <mxGeometry relative="1" as="geometry" />
        </mxCell>
        <mxCell id="p_2lori3M2sPVxMAgTC9-61" value="&lt;div&gt;&lt;font style=&quot;font-size: 10px;&quot;&gt;Receive&lt;/font&gt;&lt;/div&gt;&lt;div&gt;&lt;font style=&quot;font-size: 10px;&quot;&gt;&amp;nbsp;notification&lt;/font&gt;&lt;/div&gt;" style="points=[[0.25,0,0],[0.5,0,0],[0.75,0,0],[1,0.25,0],[1,0.5,0],[1,0.75,0],[0.75,1,0],[0.5,1,0],[0.25,1,0],[0,0.75,0],[0,0.5,0],[0,0.25,0]];shape=mxgraph.bpmn.task;whiteSpace=wrap;rectStyle=rounded;size=10;html=1;container=1;expand=0;collapsible=0;taskMarker=service;" parent="p_2lori3M2sPVxMAgTC9-54" vertex="1">
          <mxGeometry x="1090" y="32" width="90" height="50" as="geometry" />
        </mxCell>
        <mxCell id="p_2lori3M2sPVxMAgTC9-62" style="edgeStyle=orthogonalEdgeStyle;rounded=0;orthogonalLoop=1;jettySize=auto;html=1;" parent="p_2lori3M2sPVxMAgTC9-54" source="p_2lori3M2sPVxMAgTC9-61" edge="1">
          <mxGeometry relative="1" as="geometry">
            <mxPoint x="1322" y="-224" as="targetPoint" />
          </mxGeometry>
        </mxCell>
        <mxCell id="p_2lori3M2sPVxMAgTC9-63" value="" style="points=[[0.145,0.145,0],[0.5,0,0],[0.855,0.145,0],[1,0.5,0],[0.855,0.855,0],[0.5,1,0],[0.145,0.855,0],[0,0.5,0]];shape=mxgraph.bpmn.event;html=1;verticalLabelPosition=bottom;labelBackgroundColor=#ffffff;verticalAlign=top;align=center;perimeter=ellipsePerimeter;outlineConnect=0;aspect=fixed;outline=standard;symbol=message;" parent="p_2lori3M2sPVxMAgTC9-54" vertex="1">
          <mxGeometry x="886" y="21" width="20" height="20" as="geometry" />
        </mxCell>
        <mxCell id="p_2lori3M2sPVxMAgTC9-64" style="edgeStyle=orthogonalEdgeStyle;rounded=0;orthogonalLoop=1;jettySize=auto;html=1;" parent="p_2lori3M2sPVxMAgTC9-54" source="p_2lori3M2sPVxMAgTC9-63" target="p_2lori3M2sPVxMAgTC9-58" edge="1">
          <mxGeometry relative="1" as="geometry" />
        </mxCell>
        <mxCell id="p_2lori3M2sPVxMAgTC9-45" value="&lt;span style=&quot;font-size: 10px;&quot;&gt;Yes&lt;/span&gt;" style="text;html=1;align=center;verticalAlign=middle;whiteSpace=wrap;rounded=0;" parent="p_2lori3M2sPVxMAgTC9-54" vertex="1">
          <mxGeometry x="894" y="45" width="39" height="20" as="geometry" />
        </mxCell>
        <mxCell id="mK100GiyQja9Fsr_tC5g-0" value="Line manager" style="swimlane;startSize=20;horizontal=0;html=1;" parent="DP1tajTbKg8MEuZh2tVG-1" vertex="1">
          <mxGeometry x="-339" y="-27" width="1490" height="219" as="geometry" />
        </mxCell>
        <mxCell id="mK100GiyQja9Fsr_tC5g-1" style="edgeStyle=orthogonalEdgeStyle;rounded=0;orthogonalLoop=1;jettySize=auto;html=1;" parent="mK100GiyQja9Fsr_tC5g-0" source="mK100GiyQja9Fsr_tC5g-2" target="mK100GiyQja9Fsr_tC5g-4" edge="1">
          <mxGeometry relative="1" as="geometry" />
        </mxCell>
        <mxCell id="mK100GiyQja9Fsr_tC5g-2" value="" style="points=[[0.145,0.145,0],[0.5,0,0],[0.855,0.145,0],[1,0.5,0],[0.855,0.855,0],[0.5,1,0],[0.145,0.855,0],[0,0.5,0]];shape=mxgraph.bpmn.event;html=1;verticalLabelPosition=bottom;labelBackgroundColor=#ffffff;verticalAlign=top;align=center;perimeter=ellipsePerimeter;outlineConnect=0;aspect=fixed;outline=standard;symbol=message;" parent="mK100GiyQja9Fsr_tC5g-0" vertex="1">
          <mxGeometry x="712" y="156" width="30" height="30" as="geometry" />
        </mxCell>
        <mxCell id="fuA8E3XE12-GCWz75DfU-4" style="edgeStyle=orthogonalEdgeStyle;rounded=0;orthogonalLoop=1;jettySize=auto;html=1;entryX=0;entryY=0.5;entryDx=0;entryDy=0;entryPerimeter=0;" parent="mK100GiyQja9Fsr_tC5g-0" source="mK100GiyQja9Fsr_tC5g-4" target="fuA8E3XE12-GCWz75DfU-3" edge="1">
          <mxGeometry relative="1" as="geometry">
            <mxPoint x="810" y="85" as="targetPoint" />
          </mxGeometry>
        </mxCell>
        <mxCell id="mK100GiyQja9Fsr_tC5g-4" value="&lt;div&gt;Review details&lt;/div&gt;" style="points=[[0.25,0,0],[0.5,0,0],[0.75,0,0],[1,0.25,0],[1,0.5,0],[1,0.75,0],[0.75,1,0],[0.5,1,0],[0.25,1,0],[0,0.75,0],[0,0.5,0],[0,0.25,0]];shape=mxgraph.bpmn.task;whiteSpace=wrap;rectStyle=rounded;size=10;html=1;container=1;expand=0;collapsible=0;taskMarker=user;" parent="mK100GiyQja9Fsr_tC5g-0" vertex="1">
          <mxGeometry x="682" y="55" width="90" height="60" as="geometry" />
        </mxCell>
        <mxCell id="mK100GiyQja9Fsr_tC5g-9" value="" style="points=[[0.145,0.145,0],[0.5,0,0],[0.855,0.145,0],[1,0.5,0],[0.855,0.855,0],[0.5,1,0],[0.145,0.855,0],[0,0.5,0]];shape=mxgraph.bpmn.event;html=1;verticalLabelPosition=bottom;labelBackgroundColor=#ffffff;verticalAlign=top;align=center;perimeter=ellipsePerimeter;outlineConnect=0;aspect=fixed;outline=standard;symbol=message;" parent="mK100GiyQja9Fsr_tC5g-0" vertex="1">
          <mxGeometry x="973" y="171" width="30" height="30" as="geometry" />
        </mxCell>
        <mxCell id="mK100GiyQja9Fsr_tC5g-13" value="&lt;div&gt;&lt;font style=&quot;font-size: 10px;&quot;&gt;Provide approval&lt;/font&gt;&lt;/div&gt;" style="points=[[0.25,0,0],[0.5,0,0],[0.75,0,0],[1,0.25,0],[1,0.5,0],[1,0.75,0],[0.75,1,0],[0.5,1,0],[0.25,1,0],[0,0.75,0],[0,0.5,0],[0,0.25,0]];shape=mxgraph.bpmn.task;whiteSpace=wrap;rectStyle=rounded;size=10;html=1;container=1;expand=0;collapsible=0;taskMarker=user;" parent="mK100GiyQja9Fsr_tC5g-0" vertex="1">
          <mxGeometry x="1086" y="55" width="100" height="60" as="geometry" />
        </mxCell>
        <mxCell id="RAK3HERPRjVZuNe-H92L-4" style="edgeStyle=orthogonalEdgeStyle;rounded=0;orthogonalLoop=1;jettySize=auto;html=1;" parent="mK100GiyQja9Fsr_tC5g-0" source="mK100GiyQja9Fsr_tC5g-14" edge="1">
          <mxGeometry relative="1" as="geometry">
            <mxPoint x="1320" y="347.33333333333326" as="targetPoint" />
          </mxGeometry>
        </mxCell>
        <mxCell id="mK100GiyQja9Fsr_tC5g-14" value="&lt;div&gt;&lt;font style=&quot;font-size: 10px;&quot;&gt;Receive&lt;/font&gt;&lt;/div&gt;&lt;div&gt;&lt;font style=&quot;font-size: 10px;&quot;&gt;&amp;nbsp;notification&lt;/font&gt;&lt;/div&gt;" style="points=[[0.25,0,0],[0.5,0,0],[0.75,0,0],[1,0.25,0],[1,0.5,0],[1,0.75,0],[0.75,1,0],[0.5,1,0],[0.25,1,0],[0,0.75,0],[0,0.5,0],[0,0.25,0]];shape=mxgraph.bpmn.task;whiteSpace=wrap;rectStyle=rounded;size=10;html=1;container=1;expand=0;collapsible=0;taskMarker=service;" parent="mK100GiyQja9Fsr_tC5g-0" vertex="1">
          <mxGeometry x="1263" y="54.75" width="114" height="59" as="geometry" />
        </mxCell>
        <mxCell id="0TexcutDrAjfoCsRnpNa-2" style="edgeStyle=orthogonalEdgeStyle;rounded=0;orthogonalLoop=1;jettySize=auto;html=1;" parent="mK100GiyQja9Fsr_tC5g-0" source="bD9DiAvbuAOdTdwCYoQ0-6" target="mK100GiyQja9Fsr_tC5g-9" edge="1">
          <mxGeometry relative="1" as="geometry" />
        </mxCell>
        <mxCell id="bD9DiAvbuAOdTdwCYoQ0-6" value="&lt;span style=&quot;font-size: 10px;&quot;&gt;Data&amp;nbsp;&lt;/span&gt;&lt;div&gt;&lt;span style=&quot;font-size: 10px;&quot;&gt;missing?&lt;/span&gt;&lt;/div&gt;" style="strokeWidth=2;html=1;shape=mxgraph.flowchart.decision;whiteSpace=wrap;" parent="mK100GiyQja9Fsr_tC5g-0" vertex="1">
          <mxGeometry x="954" y="53.5" width="68" height="61.5" as="geometry" />
        </mxCell>
        <mxCell id="fuA8E3XE12-GCWz75DfU-3" value="&lt;div&gt;&lt;font style=&quot;font-size: 10px;&quot;&gt;&lt;br&gt;&lt;/font&gt;&lt;/div&gt;&lt;font style=&quot;font-size: 10px;&quot;&gt;Perform necessary checks for missing data&lt;/font&gt;" style="points=[[0.25,0,0],[0.5,0,0],[0.75,0,0],[1,0.25,0],[1,0.5,0],[1,0.75,0],[0.75,1,0],[0.5,1,0],[0.25,1,0],[0,0.75,0],[0,0.5,0],[0,0.25,0]];shape=mxgraph.bpmn.task;whiteSpace=wrap;rectStyle=rounded;size=10;html=1;container=1;expand=0;collapsible=0;taskMarker=user;" parent="mK100GiyQja9Fsr_tC5g-0" vertex="1">
          <mxGeometry x="818" y="55" width="90" height="60" as="geometry" />
        </mxCell>
        <mxCell id="fuA8E3XE12-GCWz75DfU-5" style="edgeStyle=orthogonalEdgeStyle;rounded=0;orthogonalLoop=1;jettySize=auto;html=1;entryX=0;entryY=0.5;entryDx=0;entryDy=0;entryPerimeter=0;" parent="mK100GiyQja9Fsr_tC5g-0" source="fuA8E3XE12-GCWz75DfU-3" target="bD9DiAvbuAOdTdwCYoQ0-6" edge="1">
          <mxGeometry relative="1" as="geometry" />
        </mxCell>
        <mxCell id="1kp2pEWLjw-sNzYEPr71-0" style="edgeStyle=orthogonalEdgeStyle;rounded=0;orthogonalLoop=1;jettySize=auto;html=1;entryX=0;entryY=0.5;entryDx=0;entryDy=0;entryPerimeter=0;" parent="mK100GiyQja9Fsr_tC5g-0" source="bD9DiAvbuAOdTdwCYoQ0-6" target="mK100GiyQja9Fsr_tC5g-13" edge="1">
          <mxGeometry relative="1" as="geometry" />
        </mxCell>
        <mxCell id="p_2lori3M2sPVxMAgTC9-65" value="&lt;span style=&quot;font-size: 10px;&quot;&gt;No&lt;/span&gt;" style="text;html=1;align=center;verticalAlign=middle;whiteSpace=wrap;rounded=0;" parent="mK100GiyQja9Fsr_tC5g-0" vertex="1">
          <mxGeometry x="1032" y="55" width="39" height="20" as="geometry" />
        </mxCell>
        <mxCell id="1kp2pEWLjw-sNzYEPr71-1" value="&lt;span style=&quot;font-size: 10px;&quot;&gt;Yes&lt;/span&gt;" style="text;html=1;align=center;verticalAlign=middle;whiteSpace=wrap;rounded=0;" parent="mK100GiyQja9Fsr_tC5g-0" vertex="1">
          <mxGeometry x="996" y="128" width="39" height="20" as="geometry" />
        </mxCell>
        <mxCell id="RAK3HERPRjVZuNe-H92L-3" style="edgeStyle=orthogonalEdgeStyle;rounded=0;orthogonalLoop=1;jettySize=auto;html=1;entryX=0;entryY=0.5;entryDx=0;entryDy=0;entryPerimeter=0;" parent="mK100GiyQja9Fsr_tC5g-0" source="mK100GiyQja9Fsr_tC5g-13" target="mK100GiyQja9Fsr_tC5g-14" edge="1">
          <mxGeometry relative="1" as="geometry" />
        </mxCell>
        <mxCell id="0TexcutDrAjfoCsRnpNa-3" style="edgeStyle=orthogonalEdgeStyle;rounded=0;orthogonalLoop=1;jettySize=auto;html=1;" parent="DP1tajTbKg8MEuZh2tVG-1" source="mK100GiyQja9Fsr_tC5g-9" target="0TexcutDrAjfoCsRnpNa-0" edge="1">
          <mxGeometry relative="1" as="geometry" />
        </mxCell>
        <mxCell id="fuA8E3XE12-GCWz75DfU-2" style="edgeStyle=orthogonalEdgeStyle;rounded=0;orthogonalLoop=1;jettySize=auto;html=1;entryX=0.5;entryY=1;entryDx=0;entryDy=0;entryPerimeter=0;" parent="DP1tajTbKg8MEuZh2tVG-1" source="rEKTI0RP75uoOM8sU9Dj-0" target="mK100GiyQja9Fsr_tC5g-2" edge="1">
          <mxGeometry relative="1" as="geometry" />
        </mxCell>
        <mxCell id="fuA8E3XE12-GCWz75DfU-6" style="edgeStyle=orthogonalEdgeStyle;rounded=0;orthogonalLoop=1;jettySize=auto;html=1;entryX=0.5;entryY=1;entryDx=0;entryDy=0;entryPerimeter=0;" parent="DP1tajTbKg8MEuZh2tVG-1" source="0TexcutDrAjfoCsRnpNa-0" target="fuA8E3XE12-GCWz75DfU-3" edge="1">
          <mxGeometry relative="1" as="geometry" />
        </mxCell>
        <mxCell id="RAK3HERPRjVZuNe-H92L-1" style="edgeStyle=orthogonalEdgeStyle;rounded=0;orthogonalLoop=1;jettySize=auto;html=1;entryX=0.5;entryY=0;entryDx=0;entryDy=0;entryPerimeter=0;" parent="DP1tajTbKg8MEuZh2tVG-1" source="mK100GiyQja9Fsr_tC5g-13" target="RAK3HERPRjVZuNe-H92L-0" edge="1">
          <mxGeometry relative="1" as="geometry" />
        </mxCell>
      </root>
    </mxGraphModel>
  </diagram>
</mxfile>
